<mxfile host="app.diagrams.net" modified="2024-04-12T07:43:26.588Z" agent="Mozilla/5.0 (Windows NT 10.0; Win64; x64) AppleWebKit/537.36 (KHTML, like Gecko) Chrome/123.0.0.0 Safari/537.36" version="24.2.3" etag="KT3nT1SxXH7nynwVTIj3" type="github">
  <diagram name="第 1 页" id="kXeSKhetH7G-7BS61RG_">
    <mxGraphModel>
      <root>
        <mxCell id="0" />
        <mxCell id="1" parent="0" />
      </root>
    </mxGraphModel>
  </diagram>
</mxfile>
